<svg viewBox="0 0 1119.3875064849854 528" style="max-width: 1119.3875064849854px;" height="528" aria-labelledby="chart-title-mgraph chart-desc-mgraph" role="img" xmlns="http://www.w3.org/2000/svg" width="100%" id="mgraph"><title id="chart-title-mgraph"></title><desc id="chart-desc-mgraph"></desc><style>#mgraph {font-family:"trebuchet ms",verdana,arial,sans-serif;font-size:16px;fill:#333;}#mgraph .error-icon{fill:#552222;}#mgraph .error-text{fill:#552222;stroke:#552222;}#mgraph .edge-thickness-normal{stroke-width:2px;}#mgraph .edge-thickness-thick{stroke-width:3.5px;}#mgraph .edge-pattern-solid{stroke-dasharray:0;}#mgraph .edge-pattern-dashed{stroke-dasharray:3;}#mgraph .edge-pattern-dotted{stroke-dasharray:2;}#mgraph .marker{fill:#333333;stroke:#333333;}#mgraph .marker.cross{stroke:#333333;}#mgraph svg{font-family:"trebuchet ms",verdana,arial,sans-serif;font-size:16px;}#mgraph .label{font-family:"trebuchet ms",verdana,arial,sans-serif;color:#333;}#mgraph .cluster-label text{fill:#333;}#mgraph .cluster-label span{color:#333;}#mgraph .label text,#mgraph span{fill:#333;color:#333;}#mgraph .node rect,#mgraph .node circle,#mgraph .node ellipse,#mgraph .node polygon,#mgraph .node path{fill:#ECECFF;stroke:#9370DB;stroke-width:1px;}#mgraph .node .label{text-align:center;}#mgraph .node.clickable{cursor:pointer;}#mgraph .arrowheadPath{fill:#333333;}#mgraph .edgePath .path{stroke:#333333;stroke-width:2.0px;}#mgraph .flowchart-link{stroke:#333333;fill:none;}#mgraph .edgeLabel{background-color:#e8e8e8;text-align:center;}#mgraph .edgeLabel rect{opacity:0.5;background-color:#e8e8e8;fill:#e8e8e8;}#mgraph .cluster rect{fill:#ffffde;stroke:#aaaa33;stroke-width:1px;}#mgraph .cluster text{fill:#333;}#mgraph .cluster span{color:#333;}#mgraph div.mermaidTooltip{position:absolute;text-align:center;max-width:200px;padding:2px;font-family:"trebuchet ms",verdana,arial,sans-serif;font-size:12px;background:hsl(80, 100%, 96.2745098039%);border:1px solid #aaaa33;border-radius:2px;pointer-events:none;z-index:100;}#mgraph :root{--mermaid-font-family:"trebuchet ms",verdana,arial,sans-serif;}#mgraph .Sig&gt;*{fill:#EFFAF5!important;stroke:#48C78E!important;}#mgraph .Sig span{fill:#EFFAF5!important;stroke:#48C78E!important;}#mgraph .SigUnsafe&gt;*{fill:#FFFAEB!important;stroke:#FFE08A!important;}#mgraph .SigUnsafe span{fill:#FFFAEB!important;stroke:#FFE08A!important;}#mgraph .NoSig&gt;*{fill:#FEECF0!important;stroke:#F14668!important;}#mgraph .NoSig span{fill:#FEECF0!important;stroke:#F14668!important;}</style><g transform="translate(0, 0)"><g class="output"><g class="clusters"><g style="opacity: 1;" transform="translate(68.70000076293945,272)" id="flowchart-UTXO-247" class="cluster"><rect y="-245" x="-60.70000076293945" height="490" width="121.4000015258789"></rect><g id="mgraphText" transform="translate(0, -231)" class="label"><g transform="translate(-19.681249618530273,-12)"><foreignObject height="24" width="39.36249923706055"><div style="display: inline-block; white-space: nowrap;" xmlns="http://www.w3.org/1999/xhtml">UTXO</div></foreignObject></g></g></g></g><g class="edgePaths"><g style="opacity: 1;" id="L-5-3" class="edgePath LS-5 LE-3"><path style="fill:none" marker-end="url(#arrowhead151)" d="M603.350004196167,59.612779748238445L597.6416708628336,61.010649790198705C591.9333375295004,62.40851983215896,580.5166708628336,65.20425991607948,562.6604207356771,66.60212995803974C544.8041706085205,68,520.508337020874,68,496.37187846501666,68C472.23541990915936,68,448.2583363850911,68,425.45312786102295,68C402.64791933695477,68,381.01458581288654,68,359.22187725702923,68C337.4291687011719,68,315.4770851135254,68,298.79270998636883,69.2311148553777C282.1083348592122,70.46222971075541,270.6916681925456,72.9244594215108,264.9833348592122,74.15557427688852L259.2750015258789,75.38668913226621" class="path"></path><defs><marker orient="auto" markerHeight="6" markerWidth="8" markerUnits="strokeWidth" refY="5" refX="9" viewBox="0 0 10 10" id="arrowhead151"><path style="stroke-width: 1; stroke-dasharray: 1, 0;" class="arrowheadPath" d="M 0 0 L 10 5 L 0 10 z"></path></marker></defs></g><g style="opacity: 1;" id="L-5-4" class="edgePath LS-5 LE-4"><path style="fill:none" marker-end="url(#arrowhead152)" d="M642.0833814296317,74L651.6986517635643,101.66666666666667C661.313922097497,129.33333333333334,680.5444627653623,184.66666666666666,701.0196779920863,243.25C721.4948932188103,301.8333333333333,743.2147830043931,363.6666666666667,754.0747278971844,394.5833333333333L764.9346727899758,425.5" class="path"></path><defs><marker orient="auto" markerHeight="6" markerWidth="8" markerUnits="strokeWidth" refY="5" refX="9" viewBox="0 0 10 10" id="arrowhead152"><path style="stroke-width: 1; stroke-dasharray: 1, 0;" class="arrowheadPath" d="M 0 0 L 10 5 L 0 10 z"></path></marker></defs></g><g style="opacity: 1;" id="L-7-6" class="edgePath LS-7 LE-6"><path style="fill:none" marker-end="url(#arrowhead153)" d="M390.9875030517578,178L396.536461353302,178C402.0854196548462,178,413.18333625793457,178,427.9150073984836,190C442.6466785390326,202,461.01210421704235,226,470.1948170560472,238L479.377529895052,250" class="path"></path><defs><marker orient="auto" markerHeight="6" markerWidth="8" markerUnits="strokeWidth" refY="5" refX="9" viewBox="0 0 10 10" id="arrowhead153"><path style="stroke-width: 1; stroke-dasharray: 1, 0;" class="arrowheadPath" d="M 0 0 L 10 5 L 0 10 z"></path></marker></defs></g><g style="opacity: 1;" id="L-9-6" class="edgePath LS-9 LE-6"><path style="fill:none" marker-end="url(#arrowhead154)" d="M898.6500053405762,487.8164809240442L889.8000052769979,491.18040077003684C880.9500052134196,494.54432061602944,863.2500050862631,501.27216030801475,842.2520882288615,504.6360801540074C821.25417137146,508,796.9583377838135,508,772.662504196167,508C748.3666706085205,508,724.070837020874,508,701.0333369572958,508C677.9958368937174,508,656.2166703542074,508,634.4375038146973,508C612.6583372751871,508,590.8791707356771,508,568.9741035935568,472.3333333333333C547.0690364514367,436.6666666666667,525.0380687067064,365.3333333333333,514.0225848343413,329.6666666666667L503.0071009619761,294" class="path"></path><defs><marker orient="auto" markerHeight="6" markerWidth="8" markerUnits="strokeWidth" refY="5" refX="9" viewBox="0 0 10 10" id="arrowhead154"><path style="stroke-width: 1; stroke-dasharray: 1, 0;" class="arrowheadPath" d="M 0 0 L 10 5 L 0 10 z"></path></marker></defs></g><g style="opacity: 1;" id="L-1-0" class="edgePath LS-1 LE-0"><path style="fill:none" marker-end="url(#arrowhead155)" d="M979.6750049591064,30L985.3833382924398,30C991.0916716257731,30,1002.5083382924398,30,1013.9250049591064,30C1025.3416716257732,30,1036.7583382924397,30,1042.4666716257732,30L1048.1750049591064,30" class="path"></path><defs><marker orient="auto" markerHeight="6" markerWidth="8" markerUnits="strokeWidth" refY="5" refX="9" viewBox="0 0 10 10" id="arrowhead155"><path style="stroke-width: 1; stroke-dasharray: 1, 0;" class="arrowheadPath" d="M 0 0 L 10 5 L 0 10 z"></path></marker></defs></g><g style="opacity: 1;" id="L-2-1" class="edgePath LS-2 LE-1"><path style="fill:none" marker-end="url(#arrowhead156)" d="M803.7500038146973,30L810.7166706720988,30C817.6833375295004,30,831.6166712443033,30,844.2916714350382,30C856.9666716257731,30,868.3833382924398,30,874.0916716257731,30L879.8000049591064,30" class="path"></path><defs><marker orient="auto" markerHeight="6" markerWidth="8" markerUnits="strokeWidth" refY="5" refX="9" viewBox="0 0 10 10" id="arrowhead156"><path style="stroke-width: 1; stroke-dasharray: 1, 0;" class="arrowheadPath" d="M 0 0 L 10 5 L 0 10 z"></path></marker></defs></g><g style="opacity: 1;" id="L-3-7" class="edgePath LS-3 LE-7"><path style="fill:none" marker-end="url(#arrowhead157)" d="M259.2750015258789,97.45829823083403L264.9833348592122,99.3819151923617C270.6916681925456,101.30553215388936,282.1083348592122,105.15276607694467,295.29310245790344,114.90971637180569C308.4778700565946,124.66666666666667,323.4307385873104,140.33333333333334,330.9071728526682,148.16666666666666L338.3836071180261,156" class="path"></path><defs><marker orient="auto" markerHeight="6" markerWidth="8" markerUnits="strokeWidth" refY="5" refX="9" viewBox="0 0 10 10" id="arrowhead157"><path style="stroke-width: 1; stroke-dasharray: 1, 0;" class="arrowheadPath" d="M 0 0 L 10 5 L 0 10 z"></path></marker></defs></g><g style="opacity: 1;" id="L-4-9" class="edgePath LS-4 LE-9"><path style="fill:none" marker-end="url(#arrowhead158)" d="M811.3000049591064,447.5L817.0083382924398,447.5C822.7166716257731,447.5,834.1333382924398,447.5,848.6916716893514,450.4959911128372C863.2500050862631,453.49198222567435,880.9500052134196,459.48396445134875,889.8000052769979,462.47995556418596L898.6500053405762,465.47594667702316" class="path"></path><defs><marker orient="auto" markerHeight="6" markerWidth="8" markerUnits="strokeWidth" refY="5" refX="9" viewBox="0 0 10 10" id="arrowhead158"><path style="stroke-width: 1; stroke-dasharray: 1, 0;" class="arrowheadPath" d="M 0 0 L 10 5 L 0 10 z"></path></marker></defs></g><g style="opacity: 1;" id="L-5-2" class="edgePath LS-5 LE-2"><path style="fill:none" marker-end="url(#arrowhead159)" d="M665.5250034332275,41.53242784617214L671.2333367665609,39.610356538476786C676.9416700998942,37.688285230781425,688.3583367665609,33.844142615390716,701.0333369572958,31.922071307695358C713.7083371480306,30,727.6416708628336,30,734.6083377202352,30L741.5750045776367,30" class="path"></path><defs><marker orient="auto" markerHeight="6" markerWidth="8" markerUnits="strokeWidth" refY="5" refX="9" viewBox="0 0 10 10" id="arrowhead159"><path style="stroke-width: 1; stroke-dasharray: 1, 0;" class="arrowheadPath" d="M 0 0 L 10 5 L 0 10 z"></path></marker></defs></g><g style="opacity: 1;" id="L-6-5" class="edgePath LS-6 LE-5"><path style="fill:none" marker-end="url(#arrowhead160)" d="M503.0071009619761,250L514.0225848343413,214.33333333333334C525.0380687067064,178.66666666666666,547.0690364514367,107.33333333333333,563.7928536571352,73.06453670862693C580.5166708628336,38.79574008392052,591.9333375295004,41.591480167841034,597.6416708628336,42.989350209801295L603.350004196167,44.387220251761555" class="path"></path><defs><marker orient="auto" markerHeight="6" markerWidth="8" markerUnits="strokeWidth" refY="5" refX="9" viewBox="0 0 10 10" id="arrowhead160"><path style="stroke-width: 1; stroke-dasharray: 1, 0;" class="arrowheadPath" d="M 0 0 L 10 5 L 0 10 z"></path></marker></defs></g><g style="opacity: 1;" id="L-8-7" class="edgePath LS-8 LE-7"><path style="fill:none" marker-end="url(#arrowhead161)" d="M259.2750015258789,178L264.9833348592122,178C270.6916681925456,178,282.1083348592122,178,293.5250015258789,178C304.9416681925456,178,316.3583348592122,178,322.0666681925456,178L327.7750015258789,178" class="path"></path><defs><marker orient="auto" markerHeight="6" markerWidth="8" markerUnits="strokeWidth" refY="5" refX="9" viewBox="0 0 10 10" id="arrowhead161"><path style="stroke-width: 1; stroke-dasharray: 1, 0;" class="arrowheadPath" d="M 0 0 L 10 5 L 0 10 z"></path></marker></defs></g><g style="opacity: 1;" id="L-841756-3" class="edgePath LS-841756 LE-3"><path style="fill:none" marker-end="url(#arrowhead162)" d="M103.875,84L108.12916692097981,84C112.38333384195964,84,120.89166768391927,84,129.31250127156576,84C137.73333485921225,84,146.06666819254556,84,154.4000015258789,84C162.73333485921225,84,171.06666819254556,84,175.23333485921225,84L179.4000015258789,84" class="path"></path><defs><marker orient="auto" markerHeight="6" markerWidth="8" markerUnits="strokeWidth" refY="5" refX="9" viewBox="0 0 10 10" id="arrowhead162"><path style="stroke-width: 1; stroke-dasharray: 1, 0;" class="arrowheadPath" d="M 0 0 L 10 5 L 0 10 z"></path></marker></defs></g><g style="opacity: 1;" id="L-23444b-4" class="edgePath LS-23444b LE-4"><path style="fill:none" marker-end="url(#arrowhead163)" d="M104.13750076293945,460L108.3479175567627,460C112.55833435058594,460,120.97916793823242,460,129.35625139872232,460C137.73333485921225,460,146.06666819254556,460,161.0562515258789,460C176.04583485921225,460,197.69166819254556,460,220.87916819254556,460C244.06666819254556,460,268.7958348592122,460,292.13645998636883,460C315.4770851135254,460,337.4291687011719,460,359.22187725702923,460C381.01458581288654,460,402.64791933695477,460,425.45312786102295,460C448.2583363850911,460,472.23541990915936,460,496.37187846501666,460C520.508337020874,460,544.8041706085205,460,567.8416706720988,460C590.8791707356771,460,612.6583372751871,460,634.4375038146973,460C656.2166703542074,460,677.9958368937174,460,694.5937534968058,459.02103699647023C711.1916700998942,458.04207399294046,722.6083367665609,456.0841479858809,728.3166700998942,455.10518498235115L734.0250034332275,454.1262219788213" class="path"></path><defs><marker orient="auto" markerHeight="6" markerWidth="8" markerUnits="strokeWidth" refY="5" refX="9" viewBox="0 0 10 10" id="arrowhead163"><path style="stroke-width: 1; stroke-dasharray: 1, 0;" class="arrowheadPath" d="M 0 0 L 10 5 L 0 10 z"></path></marker></defs></g><g style="opacity: 1;" id="L-d10d36-6" class="edgePath LS-d10d36 LE-6"><path style="fill:none" marker-end="url(#arrowhead164)" d="M104.4000015258789,366L108.56666819254558,366C112.73333485921223,366,121.06666819254558,366,129.4000015258789,366C137.73333485921225,366,146.06666819254556,366,161.0562515258789,366C176.04583485921225,366,197.69166819254556,366,220.87916819254556,366C244.06666819254556,366,268.7958348592122,366,292.13645998636883,366C315.4770851135254,366,337.4291687011719,366,359.22187725702923,366C381.01458581288654,366,402.64791933695477,366,422.64729893799375,354C442.6466785390326,342,461.01210421704235,318,470.1948170560472,306L479.377529895052,294" class="path"></path><defs><marker orient="auto" markerHeight="6" markerWidth="8" markerUnits="strokeWidth" refY="5" refX="9" viewBox="0 0 10 10" id="arrowhead164"><path style="stroke-width: 1; stroke-dasharray: 1, 0;" class="arrowheadPath" d="M 0 0 L 10 5 L 0 10 z"></path></marker></defs></g><g style="opacity: 1;" id="L-6e6298-7" class="edgePath LS-6e6298 LE-7"><path style="fill:none" marker-end="url(#arrowhead165)" d="M104.04375076293945,272L108.2697925567627,272C112.49583435058594,272,120.94791793823242,272,129.34062639872232,272C137.73333485921225,272,146.06666819254556,272,161.0562515258789,272C176.04583485921225,272,197.69166819254556,272,220.87916819254556,272C244.06666819254556,272,268.7958348592122,272,289.5675991410059,260C310.33936342279964,248,327.1537253197203,224,335.56090626818064,212L343.96808721664104,200" class="path"></path><defs><marker orient="auto" markerHeight="6" markerWidth="8" markerUnits="strokeWidth" refY="5" refX="9" viewBox="0 0 10 10" id="arrowhead165"><path style="stroke-width: 1; stroke-dasharray: 1, 0;" class="arrowheadPath" d="M 0 0 L 10 5 L 0 10 z"></path></marker></defs></g><g style="opacity: 1;" id="L-28c378-8" class="edgePath LS-28c378 LE-8"><path style="fill:none" marker-end="url(#arrowhead166)" d="M103.63750076293945,178L107.93125089009602,178C112.22500101725261,178,120.81250127156575,178,129.272918065389,178C137.73333485921225,178,146.06666819254556,178,154.4000015258789,178C162.73333485921225,178,171.06666819254556,178,175.23333485921225,178L179.4000015258789,178" class="path"></path><defs><marker orient="auto" markerHeight="6" markerWidth="8" markerUnits="strokeWidth" refY="5" refX="9" viewBox="0 0 10 10" id="arrowhead166"><path style="stroke-width: 1; stroke-dasharray: 1, 0;" class="arrowheadPath" d="M 0 0 L 10 5 L 0 10 z"></path></marker></defs></g></g><g class="edgeLabels"><g style="opacity: 1;" transform="translate(424.28125286102295,68)" class="edgeLabel"><g class="label" transform="translate(-8.293749809265137,-12)"><rect height="24" width="16.587499618530273" ry="0" rx="0"></rect><foreignObject height="24" width="16.587499618530273"><div style="display: inline-block; white-space: nowrap;" xmlns="http://www.w3.org/1999/xhtml"><span style="" class="edgeLabel L-LS-5' L-LE-3" id="L-L-5-3">PA</span></div></foreignObject></g></g><g style="opacity: 1;" transform="translate(699.7750034332275,240)" class="edgeLabel"><g class="label" transform="translate(-8.293749809265137,-12)"><rect height="24" width="16.587499618530273" ry="0" rx="0"></rect><foreignObject height="24" width="16.587499618530273"><div style="display: inline-block; white-space: nowrap;" xmlns="http://www.w3.org/1999/xhtml"><span style="" class="edgeLabel L-LS-5' L-LE-4" id="L-L-5-4">PA</span></div></foreignObject></g></g><g style="opacity: 1;" transform="translate(424.28125286102295,178)" class="edgeLabel"><g class="label" transform="translate(-8.293749809265137,-12)"><rect height="24" width="16.587499618530273" ry="0" rx="0"></rect><foreignObject height="24" width="16.587499618530273"><div style="display: inline-block; white-space: nowrap;" xmlns="http://www.w3.org/1999/xhtml"><span style="" class="edgeLabel L-LS-7' L-LE-6" id="L-L-7-6">PA</span></div></foreignObject></g></g><g style="opacity: 1;" transform="translate(699.7750034332275,508)" class="edgeLabel"><g class="label" transform="translate(-8.293749809265137,-12)"><rect height="24" width="16.587499618530273" ry="0" rx="0"></rect><foreignObject height="24" width="16.587499618530273"><div style="display: inline-block; white-space: nowrap;" xmlns="http://www.w3.org/1999/xhtml"><span style="" class="edgeLabel L-LS-9' L-LE-6" id="L-L-9-6">PA</span></div></foreignObject></g></g><g style="opacity: 1;" transform="translate(1013.9250049591064,30)" class="edgeLabel"><g class="label" transform="translate(-9.25,-12)"><rect height="24" width="18.5" ry="0" rx="0"></rect><foreignObject height="24" width="18.5"><div style="display: inline-block; white-space: nowrap;" xmlns="http://www.w3.org/1999/xhtml"><span style="" class="edgeLabel L-LS-1' L-LE-0" id="L-L-1-0">CP</span></div></foreignObject></g></g><g style="opacity: 1;" transform="translate(845.5500049591064,30)" class="edgeLabel"><g class="label" transform="translate(-9.25,-12)"><rect height="24" width="18.5" ry="0" rx="0"></rect><foreignObject height="24" width="18.5"><div style="display: inline-block; white-space: nowrap;" xmlns="http://www.w3.org/1999/xhtml"><span style="" class="edgeLabel L-LS-2' L-LE-1" id="L-L-2-1">CP</span></div></foreignObject></g></g><g style="opacity: 1;" transform="translate(293.5250015258789,109)" class="edgeLabel"><g class="label" transform="translate(-9.25,-12)"><rect height="24" width="18.5" ry="0" rx="0"></rect><foreignObject height="24" width="18.5"><div style="display: inline-block; white-space: nowrap;" xmlns="http://www.w3.org/1999/xhtml"><span style="" class="edgeLabel L-LS-3' L-LE-7" id="L-L-3-7">CP</span></div></foreignObject></g></g><g style="opacity: 1;" transform="translate(845.5500049591064,447.5)" class="edgeLabel"><g class="label" transform="translate(-9.25,-12)"><rect height="24" width="18.5" ry="0" rx="0"></rect><foreignObject height="24" width="18.5"><div style="display: inline-block; white-space: nowrap;" xmlns="http://www.w3.org/1999/xhtml"><span style="" class="edgeLabel L-LS-4' L-LE-9" id="L-L-4-9">CP</span></div></foreignObject></g></g><g style="opacity: 1;" transform="translate(699.7750034332275,30)" class="edgeLabel"><g class="label" transform="translate(-9.25,-12)"><rect height="24" width="18.5" ry="0" rx="0"></rect><foreignObject height="24" width="18.5"><div style="display: inline-block; white-space: nowrap;" xmlns="http://www.w3.org/1999/xhtml"><span style="" class="edgeLabel L-LS-5' L-LE-2" id="L-L-5-2">CP</span></div></foreignObject></g></g><g style="opacity: 1;" transform="translate(569.100004196167,36)" class="edgeLabel"><g class="label" transform="translate(-9.25,-12)"><rect height="24" width="18.5" ry="0" rx="0"></rect><foreignObject height="24" width="18.5"><div style="display: inline-block; white-space: nowrap;" xmlns="http://www.w3.org/1999/xhtml"><span style="" class="edgeLabel L-LS-6' L-LE-5" id="L-L-6-5">CP</span></div></foreignObject></g></g><g style="opacity: 1;" transform="translate(293.5250015258789,178)" class="edgeLabel"><g class="label" transform="translate(-9.25,-12)"><rect height="24" width="18.5" ry="0" rx="0"></rect><foreignObject height="24" width="18.5"><div style="display: inline-block; white-space: nowrap;" xmlns="http://www.w3.org/1999/xhtml"><span style="" class="edgeLabel L-LS-8' L-LE-7" id="L-L-8-7">CP</span></div></foreignObject></g></g><g style="opacity: 1;" transform="" class="edgeLabel"><g class="label" transform="translate(0,0)"><rect height="0" width="0" ry="0" rx="0"></rect><foreignObject height="0" width="0"><div style="display: inline-block; white-space: nowrap;" xmlns="http://www.w3.org/1999/xhtml"><span style="" class="edgeLabel L-LS-841756' L-LE-3" id="L-L-841756-3"></span></div></foreignObject></g></g><g style="opacity: 1;" transform="" class="edgeLabel"><g class="label" transform="translate(0,0)"><rect height="0" width="0" ry="0" rx="0"></rect><foreignObject height="0" width="0"><div style="display: inline-block; white-space: nowrap;" xmlns="http://www.w3.org/1999/xhtml"><span style="" class="edgeLabel L-LS-23444b' L-LE-4" id="L-L-23444b-4"></span></div></foreignObject></g></g><g style="opacity: 1;" transform="" class="edgeLabel"><g class="label" transform="translate(0,0)"><rect height="0" width="0" ry="0" rx="0"></rect><foreignObject height="0" width="0"><div style="display: inline-block; white-space: nowrap;" xmlns="http://www.w3.org/1999/xhtml"><span style="" class="edgeLabel L-LS-d10d36' L-LE-6" id="L-L-d10d36-6"></span></div></foreignObject></g></g><g style="opacity: 1;" transform="" class="edgeLabel"><g class="label" transform="translate(0,0)"><rect height="0" width="0" ry="0" rx="0"></rect><foreignObject height="0" width="0"><div style="display: inline-block; white-space: nowrap;" xmlns="http://www.w3.org/1999/xhtml"><span style="" class="edgeLabel L-LS-6e6298' L-LE-7" id="L-L-6e6298-7"></span></div></foreignObject></g></g><g style="opacity: 1;" transform="" class="edgeLabel"><g class="label" transform="translate(0,0)"><rect height="0" width="0" ry="0" rx="0"></rect><foreignObject height="0" width="0"><div style="display: inline-block; white-space: nowrap;" xmlns="http://www.w3.org/1999/xhtml"><span style="" class="edgeLabel L-LS-28c378' L-LE-8" id="L-L-28c378-8"></span></div></foreignObject></g></g></g><g class="nodes"><g style="opacity: 1;" transform="translate(68.70000076293945,84)" id="flowchart-841756-232" class="node default"><rect class="label-container" height="44" width="70.35000228881836" y="-22" x="-35.17500114440918" ry="0" rx="0"></rect><g transform="translate(0,0)" class="label"><g transform="translate(-25.17500114440918,-12)"><foreignObject height="24" width="50.35000228881836"><div style="display: inline-block; white-space: nowrap;" xmlns="http://www.w3.org/1999/xhtml">841756</div></foreignObject></g></g></g><g style="opacity: 1;" transform="translate(68.70000076293945,460)" id="flowchart-23444b-233" class="node default"><rect class="label-container" height="44" width="70.875" y="-22" x="-35.4375" ry="0" rx="0"></rect><g transform="translate(0,0)" class="label"><g transform="translate(-25.4375,-12)"><foreignObject height="24" width="50.875"><div style="display: inline-block; white-space: nowrap;" xmlns="http://www.w3.org/1999/xhtml">23444b</div></foreignObject></g></g></g><g style="opacity: 1;" transform="translate(68.70000076293945,366)" id="flowchart-d10d36-234" class="node default"><rect class="label-container" height="44" width="71.4000015258789" y="-22" x="-35.70000076293945" ry="0" rx="0"></rect><g transform="translate(0,0)" class="label"><g transform="translate(-25.700000762939453,-12)"><foreignObject height="24" width="51.400001525878906"><div style="display: inline-block; white-space: nowrap;" xmlns="http://www.w3.org/1999/xhtml">d10d36</div></foreignObject></g></g></g><g style="opacity: 1;" transform="translate(68.70000076293945,272)" id="flowchart-6e6298-235" class="node default"><rect class="label-container" height="44" width="70.6875" y="-22" x="-35.34375" ry="0" rx="0"></rect><g transform="translate(0,0)" class="label"><g transform="translate(-25.34375,-12)"><foreignObject height="24" width="50.6875"><div style="display: inline-block; white-space: nowrap;" xmlns="http://www.w3.org/1999/xhtml">6e6298</div></foreignObject></g></g></g><g style="opacity: 1;" transform="translate(68.70000076293945,178)" id="flowchart-28c378-236" class="node default"><rect class="label-container" height="44" width="69.875" y="-22" x="-34.9375" ry="0" rx="0"></rect><g transform="translate(0,0)" class="label"><g transform="translate(-24.9375,-12)"><foreignObject height="24" width="49.875"><div style="display: inline-block; white-space: nowrap;" xmlns="http://www.w3.org/1999/xhtml">28c378</div></foreignObject></g></g></g><g style="opacity: 1;" transform="translate(1079.781255722046,30)" id="flowchart-0-195" class="node Sig"><rect class="label-container" height="44" width="63.212501525878906" y="-22" x="-31.606250762939453" ry="0" rx="0"></rect><g transform="translate(0,0)" class="label"><g transform="translate(-21.606250762939453,-12)"><foreignObject height="24" width="43.212501525878906"><div style="display: inline-block; white-space: nowrap;" xmlns="http://www.w3.org/1999/xhtml">0:XCH</div></foreignObject></g></g></g><g style="opacity: 1;" transform="translate(929.7375049591064,30)" id="flowchart-1-201" class="node default"><rect class="label-container" height="44" width="99.875" y="-22" x="-49.9375" ry="0" rx="0"></rect><g transform="translate(0,0)" class="label"><g transform="translate(-39.9375,-12)"><foreignObject height="24" width="79.875"><div style="display: inline-block; white-space: nowrap;" xmlns="http://www.w3.org/1999/xhtml">1:Launcher</div></foreignObject></g></g></g><g style="opacity: 1;" transform="translate(772.662504196167,30)" id="flowchart-2-196" class="node Sig"><rect class="label-container" height="44" width="62.17499923706055" y="-22" x="-31.087499618530273" ry="0" rx="0"></rect><g transform="translate(0,0)" class="label"><g transform="translate(-21.087499618530273,-12)"><foreignObject height="24" width="42.17499923706055"><div style="display: inline-block; white-space: nowrap;" xmlns="http://www.w3.org/1999/xhtml">2:NFT</div></foreignObject></g></g></g><g style="opacity: 1;" transform="translate(219.3375015258789,84)" id="flowchart-3-203" class="node default"><rect class="label-container" height="44" width="79.875" y="-22" x="-39.9375" ry="0" rx="0"></rect><g transform="translate(0,0)" class="label"><g transform="translate(-29.9375,-12)"><foreignObject height="24" width="59.875"><div style="display: inline-block; white-space: nowrap;" xmlns="http://www.w3.org/1999/xhtml">3:XCH-O</div></foreignObject></g></g></g><g style="opacity: 1;" transform="translate(772.662504196167,447.5)" id="flowchart-4-204" class="node default"><rect class="label-container" height="44" width="77.2750015258789" y="-22" x="-38.63750076293945" ry="0" rx="0"></rect><g transform="translate(0,0)" class="label"><g transform="translate(-28.637500762939453,-12)"><foreignObject height="24" width="57.275001525878906"><div style="display: inline-block; white-space: nowrap;" xmlns="http://www.w3.org/1999/xhtml">4:NFT-O</div></foreignObject></g></g></g><g style="opacity: 1;" transform="translate(634.4375038146973,52)" id="flowchart-5-197" class="node Sig"><rect class="label-container" height="44" width="62.17499923706055" y="-22" x="-31.087499618530273" ry="0" rx="0"></rect><g transform="translate(0,0)" class="label"><g transform="translate(-21.087499618530273,-12)"><foreignObject height="24" width="42.17499923706055"><div style="display: inline-block; white-space: nowrap;" xmlns="http://www.w3.org/1999/xhtml">5:NFT</div></foreignObject></g></g></g><g style="opacity: 1;" transform="translate(496.21250343322754,272)" id="flowchart-6-206" class="node default"><rect class="label-container" height="44" width="77.2750015258789" y="-22" x="-38.63750076293945" ry="0" rx="0"></rect><g transform="translate(0,0)" class="label"><g transform="translate(-28.637500762939453,-12)"><foreignObject height="24" width="57.275001525878906"><div style="display: inline-block; white-space: nowrap;" xmlns="http://www.w3.org/1999/xhtml">6:NFT-O</div></foreignObject></g></g></g><g style="opacity: 1;" transform="translate(359.38125228881836,178)" id="flowchart-7-198" class="node Sig"><rect class="label-container" height="44" width="63.212501525878906" y="-22" x="-31.606250762939453" ry="0" rx="0"></rect><g transform="translate(0,0)" class="label"><g transform="translate(-21.606250762939453,-12)"><foreignObject height="24" width="43.212501525878906"><div style="display: inline-block; white-space: nowrap;" xmlns="http://www.w3.org/1999/xhtml">7:XCH</div></foreignObject></g></g></g><g style="opacity: 1;" transform="translate(219.3375015258789,178)" id="flowchart-8-208" class="node default"><rect class="label-container" height="44" width="79.875" y="-22" x="-39.9375" ry="0" rx="0"></rect><g transform="translate(0,0)" class="label"><g transform="translate(-29.9375,-12)"><foreignObject height="24" width="59.875"><div style="display: inline-block; white-space: nowrap;" xmlns="http://www.w3.org/1999/xhtml">8:XCH-O</div></foreignObject></g></g></g><g style="opacity: 1;" transform="translate(929.7375049591064,476)" id="flowchart-9-199" class="node Sig"><rect class="label-container" height="44" width="62.17499923706055" y="-22" x="-31.087499618530273" ry="0" rx="0"></rect><g transform="translate(0,0)" class="label"><g transform="translate(-21.087499618530273,-12)"><foreignObject height="24" width="42.17499923706055"><div style="display: inline-block; white-space: nowrap;" xmlns="http://www.w3.org/1999/xhtml">9:NFT</div></foreignObject></g></g></g></g></g></g></svg>