<svg id="组_1_拷贝" data-name="组 1 拷贝" xmlns="http://www.w3.org/2000/svg" width="1770" height="456" viewBox="0 0 1770 456">
  <defs>
    <style>
      .cls-1 {
        fill: #6c77b4;
      }

      .cls-1, .cls-2, .cls-3 {
        fill-rule: evenodd;
      }

      .cls-2 {
        fill: #3aac59;
      }

      .cls-3 {
        fill: #f89e31;
      }
    </style>
  </defs>
  <path id="_ch" data-name="   ch" class="cls-1" d="M1259.01,444.632q30.84-11.037,46.13-31.7t15.28-48.393q0-27.725-16.98-42.167t-43.01-14.433a180,180,0,0,0-24.34,1.7q-12.45,1.7-23.49,3.679a111.5,111.5,0,0,1-19.53,1.981q-19.245,0-30.56-7.924t-11.32-24.338q0-18.108,11.04-27.168t31.98-9.056q9.045,0,19.24.566t22.07,1.415q11.895,0.849,24.91.849,33.39,0,51.22-15.565t17.83-42.733q0-38.484-29.43-60t-84.9-21.508q-60.57,0-103.86,24.621t-66.22,67.92q-22.935,43.3-22.93,99.333,0,72.457,38.49,113.2t120.56,40.752Q1228.155,455.669,1259.01,444.632Zm135.84-404.69q-22.935,38.775-22.93,123.1,0,21.518,1.14,49.525t3.11,57.732q1.98,29.715,4.53,56.883t5.94,47.544q5.655,33.96,15.85,51.223t25.18,22.923a94.952,94.952,0,0,0,33.68,5.66q28.305,0,46.7-18.961,18.375-18.957,18.39-62.543a367.065,367.065,0,0,0-2.55-46.695,300.869,300.869,0,0,1-2.54-38.771q0-28.866,10.47-45.28t27.45-16.414q14.145,0,22.07,11.6t7.93,34.809a422.8,422.8,0,0,1-3.12,48.676,449.133,449.133,0,0,0-3.11,52.072q0,70.76,59.43,70.75,23.775,0,41.6-13.867t27.74-45q9.885-31.12,9.9-83.768a410.749,410.749,0,0,0-5.94-67.354q-5.94-35.658-18.96-61.128-15.285-31.121-39.06-46.129-23.76-14.99-54.33-15t-57.45,16.98a143.616,143.616,0,0,0-44.43,44.148h3.39q6.225-21.5,9.34-49.808a480.35,480.35,0,0,0,3.12-52.072q0-34.517-12.17-52.072Q1493.04,1.18,1461.35,1.171,1417.76,1.171,1394.85,39.942Z"/>
  <path id="_x" data-name="     x" class="cls-2" d="M763.49,440.67q22.351-13.863,40.469-41.884t27.734-70.467h2.264A296.46,296.46,0,0,0,854.615,386.9q12.736,26.319,31.7,41.884t44.431,15.565q26.6,0,46.695-18.961T997.531,375.3q0-33.39-23.49-59.147t-77.258-41.6v-2.264q55.462-16.98,83.2-46.412,27.724-29.422,27.735-62.826,0-29.994-17.547-49.242T939.8,94.561q-34.531,0-62.826,30.847t-43.582,94.805h-2.264q-6.792-35.088-22.074-62.26T771.7,115.22a84.391,84.391,0,0,0-49.808-15.565,83.411,83.411,0,0,0-36.79,8.49A71.632,71.632,0,0,0,656.8,132.2q-10.76,15.575-10.755,36.507,0,34.53,29.15,63.675t90.843,46.695v2.264q-37.928,8.49-64.807,23.206T660.194,338.79a72.079,72.079,0,0,0-14.15,43.3q0,31.134,20.376,51.789t51.507,20.659Q741.128,454.537,763.49,440.67Z"/>
  <path id="Mi" class="cls-3" d="M392.4,430.2q21.5-23.772,21.508-82.07,0-37.356-2.83-80.089t-8.207-83.485q-5.387-40.752-12.735-71.882-9.061-38.483-28.3-59.713T309.76,31.735q-20.947,0-39.054,12.735-18.122,12.735-32.545,45t-23.489,89.994h-2.264Q202.777,124,186.655,94.278T151.28,53.526q-19.249-11.037-39.62-11.037-31.135,0-51.223,20.093T32.42,130.219q-3.4,20.946-6.792,49.242t-5.943,58.3q-2.547,30.008-3.962,58.015t-1.415,48.959q0,50.383,17.263,72.165t53.487,21.791q27.168,0,42.45-12.452t21.508-33.677q6.221-21.225,6.226-47.261a383.319,383.319,0,0,0-2.547-41.318q-2.547-23.2-6.509-48.959T137.979,203.8q-4.245-25.47-8.207-48.11h2.264q13.013,58.874,24.9,89.994t24.621,42.45q12.735,11.329,28.583,11.32,25.47,0,45.846-31.7t37.922-105.276h2.264q-6.235,32.832-13.3,68.486-7.085,35.658-11.6,69.9a494.337,494.337,0,0,0-4.528,64.807q0,34.53,8.49,53.77t23.772,26.885q15.282,7.641,35.658,7.641Q370.879,453.971,392.4,430.2ZM490.029,29.471Q470.5,43.626,470.5,71.355q0,21.517,16.131,37.356t48.959,15.848q33.39,0,52.072-14.433t18.678-40.469q0-21.5-15-37.922T541.252,15.321Q509.547,15.321,490.029,29.471Zm-0.283,156.5q-22.074,44.441-22.074,135.557,0,74.156,14.433,103.861T527.668,455.1q39.611,0,59.147-40.186t19.527-131.312q0-74.142-15.565-108.106t-43.3-33.96Q511.82,141.539,489.746,185.97Z"/>
</svg>
