<?xml version="1.0" standalone="no"?>
<!DOCTYPE svg PUBLIC "-//W3C//DTD SVG 20010904//EN"
 "http://www.w3.org/TR/2001/REC-SVG-20010904/DTD/svg10.dtd">
<svg version="1.0" xmlns="http://www.w3.org/2000/svg"
 width="232.000000pt" height="232.000000pt" viewBox="0 0 232.000000 232.000000"
 preserveAspectRatio="xMidYMid meet">
<metadata>
Created by potrace 1.14, written by Peter Selinger 2001-2017
</metadata>
<g transform="translate(0.000000,232.000000) scale(0.100000,-0.100000)"
fill="#000000" stroke="none">
<path d="M1076 2020 c-164 -19 -340 -77 -445 -146 -225 -149 -331 -404 -331
-799 l0 -130 -88 -67 c-94 -72 -215 -178 -209 -184 5 -5 161 63 257 111 40 20
73 35 74 33 1 -2 12 -29 24 -60 87 -234 317 -404 626 -463 104 -20 324 -20
438 0 159 28 303 81 457 170 l81 47 0 187 0 186 52 19 c308 109 399 500 170
733 -29 29 -52 57 -50 61 2 4 23 37 47 75 33 52 49 67 67 67 31 0 64 33 64 65
0 32 -33 65 -65 65 -31 0 -65 -32 -65 -61 0 -12 -20 -52 -45 -89 -24 -37 -47
-74 -51 -83 -5 -14 -11 -14 -57 5 -32 12 -86 22 -139 26 l-88 5 0 68 c0 38 -2
69 -4 69 -27 0 -208 56 -228 71 -21 14 -41 18 -90 17 -35 -1 -121 1 -193 4
-71 4 -165 3 -209 -2z m934 -362 c69 -32 135 -97 169 -168 22 -47 26 -68 26
-145 0 -77 -4 -98 -26 -145 -34 -70 -99 -136 -169 -169 -47 -22 -69 -26 -145
-26 -76 0 -98 4 -145 26 -70 33 -135 99 -169 169 -22 47 -26 68 -26 145 0 77
4 98 26 145 28 59 95 132 144 158 96 50 221 54 315 10z m-505 -45 c-83 -126
-107 -264 -69 -394 42 -143 163 -266 294 -300 28 -7 50 -15 50 -18 0 -12 -76
-47 -106 -49 -63 -4 -151 75 -209 188 -65 129 -104 349 -90 513 l7 87 70 0 70
0 -17 -27z m-305 -130 c0 -291 78 -529 223 -680 23 -24 39 -45 36 -47 -3 -3
-31 -8 -62 -12 -55 -6 -60 -5 -88 22 -43 41 -112 148 -142 220 -60 142 -95
352 -82 488 l7 77 46 24 c26 13 50 24 55 25 4 0 7 -53 7 -117z m-200 -6 c0 -2
-15 -16 -32 -33 l-33 -29 29 33 c28 30 36 37 36 29z m-86 -111 c-3 -8 -1 -54
5 -103 23 -182 84 -367 154 -467 l21 -29 -62 33 c-150 79 -220 242 -183 421
11 52 55 159 65 159 3 0 3 -6 0 -14z"/>
<path d="M1671 1519 c-6 -18 -11 -64 -11 -104 0 -86 15 -135 40 -135 25 0 40
49 40 135 0 86 -15 135 -40 135 -11 0 -22 -12 -29 -31z"/>
<path d="M2011 1519 c-6 -18 -11 -64 -11 -104 0 -86 15 -135 40 -135 25 0 40
49 40 135 0 86 -15 135 -40 135 -11 0 -22 -12 -29 -31z"/>
<path d="M1663 1200 c7 -55 42 -108 96 -141 38 -25 55 -29 115 -29 56 0 77 5
113 26 53 31 103 104 103 151 l0 33 -216 0 -217 0 6 -40z"/>
</g>
</svg>
