<?xml version="1.0" standalone="no"?>
<!DOCTYPE svg PUBLIC "-//W3C//DTD SVG 20010904//EN"
 "http://www.w3.org/TR/2001/REC-SVG-20010904/DTD/svg10.dtd">
<svg version="1.0" xmlns="http://www.w3.org/2000/svg"
 width="724.000000pt" height="724.000000pt" viewBox="0 0 724.000000 724.000000"
 preserveAspectRatio="xMidYMid meet">
<metadata>
Created by potrace 1.14, written by Peter Selinger 2001-2017
</metadata>
<g transform="translate(0.000000,724.000000) scale(0.100000,-0.100000)"
fill="#000000" stroke="none">
<path d="M5586 7210 c-629 -133 -1166 -658 -1517 -1484 -101 -237 -217 -587
-279 -836 -41 -167 -39 -160 -65 -160 -21 0 -25 7 -35 58 -152 753 -495 1428
-936 1841 -326 305 -667 463 -1084 501 -502 47 -1039 -155 -1345 -506 -160
-184 -247 -355 -297 -587 -29 -137 -31 -414 -4 -557 69 -358 249 -681 551
-985 271 -274 631 -500 1110 -700 147 -61 490 -181 643 -225 63 -18 72 -24 72
-44 0 -21 -9 -25 -117 -51 -409 -96 -864 -264 -1168 -431 -622 -342 -976 -755
-1087 -1267 -32 -147 -32 -433 0 -592 57 -289 173 -512 374 -720 204 -213 459
-349 745 -401 125 -22 338 -29 460 -15 578 67 1115 443 1526 1068 236 359 418
791 543 1291 35 140 40 152 61 152 18 0 24 -8 33 -42 121 -465 271 -870 449
-1214 215 -414 513 -742 820 -903 206 -107 403 -154 651 -154 363 -1 662 118
928 368 263 248 392 543 408 935 17 386 -92 757 -314 1070 -82 117 -326 363
-437 442 -299 211 -624 369 -1059 513 -172 57 -191 66 -194 87 -3 22 6 26 130
67 412 135 799 318 1093 519 154 105 233 169 364 297 312 303 511 641 593
1007 21 92 23 127 22 333 0 197 -4 244 -22 328 -60 273 -166 478 -340 659
-175 182 -395 293 -679 343 -132 23 -479 20 -597 -5z"/>
</g>
</svg>
